<svg id="Capa_1" data-name="Capa 1" xmlns="http://www.w3.org/2000/svg" viewBox="0 0 391.4 489"><defs><style>.cls-1{fill:#fff;}</style></defs><title>comprar</title><path class="cls-1" d="M440.1,422.7l-28-315.3a13.48,13.48,0,0,0-13.4-12.3H341.1a96.61,96.61,0,0,0-193.2,0H90.3a13.41,13.41,0,0,0-13.4,12.3l-28,315.3c0,.4-.1.8-.1,1.2,0,35.9,32.9,65.1,73.4,65.1H366.8c40.5,0,73.4-29.2,73.4-65.1A4.87,4.87,0,0,0,440.1,422.7ZM244.5,27a69.67,69.67,0,0,1,69.6,68.1H174.9A69.67,69.67,0,0,1,244.5,27ZM366.8,462H122.2c-25.4,0-46-16.8-46.4-37.5l26.8-302.3h45.2v41a13.5,13.5,0,0,0,27,0v-41H314.1v41a13.5,13.5,0,0,0,27,0v-41h45.2l26.9,302.3C412.8,445.2,392.1,462,366.8,462Z" transform="translate(-48.8)"/></svg>