<svg id="Camada_1" data-name="Camada 1" xmlns="http://www.w3.org/2000/svg" viewBox="0 0 512 455.52"><defs><style>.cls-1{fill:#fff;}</style></defs><title>desejo</title><path class="cls-1" d="M256,483.52a30,30,0,0,1-19.79-7.44C215.52,458,195.58,441,178,426l-.09-.07C126.32,382,81.77,344,50.78,306.61,16.14,264.81,0,225.17,0,181.87,0,139.8,14.43,101,40.62,72.58,67.12,43.83,103.49,28,143,28c29.56,0,56.62,9.34,80.45,27.77a164.53,164.53,0,0,1,32.52,34,164.57,164.57,0,0,1,32.53-34C312.35,37.34,339.42,28,369,28c39.54,0,75.91,15.83,102.42,44.58C497.58,101,512,139.8,512,181.87c0,43.3-16.13,82.94-50.78,124.74-31,37.4-75.53,75.35-127.1,119.31-17.63,15-37.6,32-58.33,50.17A30,30,0,0,1,256,483.52ZM143,58C112,58,83.43,70.39,62.66,92.91,41.59,115.76,30,147.36,30,181.87c0,36.42,13.53,69,43.88,105.61,29.33,35.39,73,72.57,123.48,115.62l.09.08c17.66,15.05,37.68,32.11,58.52,50.33,21-18.25,41-35.34,58.7-50.42,50.52-43,94.14-80.22,123.47-115.61C468.48,250.86,482,218.29,482,181.87c0-34.51-11.6-66.11-32.67-89C428.58,70.39,400,58,369,58c-22.76,0-43.65,7.24-62.1,21.5-16.44,12.72-27.89,28.8-34.61,40.05a18.93,18.93,0,0,1-32.52,0c-6.71-11.25-18.17-27.33-34.61-40.05C186.68,65.23,165.79,58,143,58Z" transform="translate(0 -28)"/></svg>