<svg id="Capa_1" data-name="Capa 1" xmlns="http://www.w3.org/2000/svg" viewBox="0 0 383 411"><defs><style>.cls-1{fill:#fff;}</style></defs><title>perfil</title><path class="cls-1" d="M391.41,283.59a190.77,190.77,0,0,0-72.77-45.65,110.71,110.71,0,1,0-125.28,0A191.82,191.82,0,0,0,64.5,419H94.42c0-89.09,72.49-161.58,161.58-161.58S417.58,329.91,417.58,419H447.5A190.25,190.25,0,0,0,391.41,283.59ZM256,227.5a80.79,80.79,0,1,1,80.79-80.79A80.88,80.88,0,0,1,256,227.5Z" transform="translate(-64.5 -36)"/><rect class="cls-1" y="383" width="383" height="28"/></svg>